<svg width="512" height="512" viewBox="0 0 512 512" xmlns="http://www.w3.org/2000/svg">
  <defs>
    <radialGradient id="bg" cx="50%" cy="40%" r="70%">
      <stop offset="0%" stop-color="#0a1628"/>
      <stop offset="100%" stop-color="#020509"/>
    </radialGradient>
    <radialGradient id="glow" cx="50%" cy="45%" r="55%">
      <stop offset="0%" stop-color="#00c8ff" stop-opacity="0.18"/>
      <stop offset="100%" stop-color="#00c8ff" stop-opacity="0"/>
    </radialGradient>
    <linearGradient id="curtain1" x1="0%" y1="0%" x2="0%" y2="100%">
      <stop offset="0%" stop-color="#00ffcc" stop-opacity="0"/>
      <stop offset="30%" stop-color="#00ffcc" stop-opacity="0.7"/>
      <stop offset="70%" stop-color="#00bfff" stop-opacity="0.5"/>
      <stop offset="100%" stop-color="#0077cc" stop-opacity="0.1"/>
    </linearGradient>
    <linearGradient id="curtain2" x1="0%" y1="0%" x2="0%" y2="100%">
      <stop offset="0%" stop-color="#66ffaa" stop-opacity="0"/>
      <stop offset="25%" stop-color="#66ffaa" stop-opacity="0.6"/>
      <stop offset="65%" stop-color="#00ddff" stop-opacity="0.45"/>
      <stop offset="100%" stop-color="#0055aa" stop-opacity="0.05"/>
    </linearGradient>
    <linearGradient id="curtain3" x1="0%" y1="0%" x2="0%" y2="100%">
      <stop offset="0%" stop-color="#aaffdd" stop-opacity="0"/>
      <stop offset="35%" stop-color="#aaffdd" stop-opacity="0.5"/>
      <stop offset="70%" stop-color="#55eeff" stop-opacity="0.35"/>
      <stop offset="100%" stop-color="#003388" stop-opacity="0"/>
    </linearGradient>
    <linearGradient id="mainline" x1="0%" y1="0%" x2="100%" y2="60%">
      <stop offset="0%" stop-color="#00ffcc"/>
      <stop offset="45%" stop-color="#00ddff"/>
      <stop offset="100%" stop-color="#88ff99"/>
    </linearGradient>
    <radialGradient id="edgeglow" cx="50%" cy="50%" r="50%">
      <stop offset="75%" stop-color="#00eaff" stop-opacity="0"/>
      <stop offset="100%" stop-color="#00eaff" stop-opacity="0.25"/>
    </radialGradient>
    <clipPath id="circle">
      <circle cx="256" cy="256" r="242"/>
    </clipPath>
    <filter id="lineBlur" x="-20%" y="-20%" width="140%" height="140%">
      <feGaussianBlur stdDeviation="6"/>
    </filter>
  </defs>

  <circle cx="256" cy="256" r="250" fill="url(#bg)" style="stroke:none;color:rgb(255, 255, 255);stroke-width:1px;stroke-linecap:butt;stroke-linejoin:miter;opacity:1;font-family:&quot;Anthropic Sans&quot;, -apple-system, BlinkMacSystemFont, &quot;Segoe UI&quot;, sans-serif;font-size:16px;font-weight:400;text-anchor:start;dominant-baseline:auto"/>

  <g clip-path="url(#circle)" style="fill:rgb(0, 0, 0);stroke:none;color:rgb(255, 255, 255);stroke-width:1px;stroke-linecap:butt;stroke-linejoin:miter;opacity:1;font-family:&quot;Anthropic Sans&quot;, -apple-system, BlinkMacSystemFont, &quot;Segoe UI&quot;, sans-serif;font-size:16px;font-weight:400;text-anchor:start;dominant-baseline:auto">
    <path d="M155 80 C148 130, 152 200, 162 290 C168 330, 175 360, 172 400&#10;             C185 400, 198 370, 196 330 C190 260, 184 180, 190 100 Z" fill="url(#curtain1)" opacity="0.75" style="stroke:none;color:rgb(255, 255, 255);stroke-width:1px;stroke-linecap:butt;stroke-linejoin:miter;opacity:0.75;font-family:&quot;Anthropic Sans&quot;, -apple-system, BlinkMacSystemFont, &quot;Segoe UI&quot;, sans-serif;font-size:16px;font-weight:400;text-anchor:start;dominant-baseline:auto"/>
    <path d="M210 65 C204 115, 207 185, 215 275 C220 315, 225 355, 223 395&#10;             C233 395, 242 362, 240 320 C235 245, 231 160, 238 78 Z" fill="url(#curtain2)" opacity="0.8" style="stroke:none;color:rgb(255, 255, 255);stroke-width:1px;stroke-linecap:butt;stroke-linejoin:miter;opacity:0.8;font-family:&quot;Anthropic Sans&quot;, -apple-system, BlinkMacSystemFont, &quot;Segoe UI&quot;, sans-serif;font-size:16px;font-weight:400;text-anchor:start;dominant-baseline:auto"/>
    <path d="M260 60 C255 108, 257 175, 263 260 C267 300, 270 340, 268 385&#10;             C276 385, 283 355, 281 315 C277 245, 275 162, 280 70 Z" fill="url(#curtain1)" opacity="0.65" style="stroke:none;color:rgb(255, 255, 255);stroke-width:1px;stroke-linecap:butt;stroke-linejoin:miter;opacity:0.65;font-family:&quot;Anthropic Sans&quot;, -apple-system, BlinkMacSystemFont, &quot;Segoe UI&quot;, sans-serif;font-size:16px;font-weight:400;text-anchor:start;dominant-baseline:auto"/>
    <path d="M305 70 C298 118, 300 188, 308 272 C313 312, 318 350, 316 390&#10;             C326 390, 336 358, 334 318 C329 245, 326 160, 332 78 Z" fill="url(#curtain3)" opacity="0.72" style="stroke:none;color:rgb(255, 255, 255);stroke-width:1px;stroke-linecap:butt;stroke-linejoin:miter;opacity:0.72;font-family:&quot;Anthropic Sans&quot;, -apple-system, BlinkMacSystemFont, &quot;Segoe UI&quot;, sans-serif;font-size:16px;font-weight:400;text-anchor:start;dominant-baseline:auto"/>
    <path d="M358 90 C350 138, 353 205, 360 285 C365 322, 370 355, 368 388&#10;             C382 388, 394 358, 392 318 C386 248, 382 168, 390 106 Z" fill="url(#curtain2)" opacity="0.6" style="stroke:none;color:rgb(255, 255, 255);stroke-width:1px;stroke-linecap:butt;stroke-linejoin:miter;opacity:0.6;font-family:&quot;Anthropic Sans&quot;, -apple-system, BlinkMacSystemFont, &quot;Segoe UI&quot;, sans-serif;font-size:16px;font-weight:400;text-anchor:start;dominant-baseline:auto"/>
    <ellipse cx="256" cy="340" rx="200" ry="60" fill="#00ffcc" opacity="0.06" style="fill:rgb(0, 255, 204);stroke:none;color:rgb(255, 255, 255);stroke-width:1px;stroke-linecap:butt;stroke-linejoin:miter;opacity:0.06;font-family:&quot;Anthropic Sans&quot;, -apple-system, BlinkMacSystemFont, &quot;Segoe UI&quot;, sans-serif;font-size:16px;font-weight:400;text-anchor:start;dominant-baseline:auto"/>
    <ellipse cx="256" cy="330" rx="150" ry="40" fill="#00eeff" opacity="0.08" style="fill:rgb(0, 238, 255);stroke:none;color:rgb(255, 255, 255);stroke-width:1px;stroke-linecap:butt;stroke-linejoin:miter;opacity:0.08;font-family:&quot;Anthropic Sans&quot;, -apple-system, BlinkMacSystemFont, &quot;Segoe UI&quot;, sans-serif;font-size:16px;font-weight:400;text-anchor:start;dominant-baseline:auto"/>
  </g>

  <circle cx="256" cy="256" r="242" fill="url(#edgeglow)" style="stroke:none;color:rgb(255, 255, 255);stroke-width:1px;stroke-linecap:butt;stroke-linejoin:miter;opacity:1;font-family:&quot;Anthropic Sans&quot;, -apple-system, BlinkMacSystemFont, &quot;Segoe UI&quot;, sans-serif;font-size:16px;font-weight:400;text-anchor:start;dominant-baseline:auto"/>
  <circle cx="256" cy="256" r="242" fill="url(#glow)" style="stroke:none;color:rgb(255, 255, 255);stroke-width:1px;stroke-linecap:butt;stroke-linejoin:miter;opacity:1;font-family:&quot;Anthropic Sans&quot;, -apple-system, BlinkMacSystemFont, &quot;Segoe UI&quot;, sans-serif;font-size:16px;font-weight:400;text-anchor:start;dominant-baseline:auto"/>

  <path d="M115 305 Q256 110 398 275 Q285 235 178 365" fill="none" stroke="url(#mainline)" stroke-width="32" stroke-linecap="round" opacity="0.85" clip-path="url(#circle)" filter="url(#lineBlur)"/>
  <path d="M115 305 Q256 110 398 275 Q285 235 178 365" fill="none" stroke="url(#mainline)" stroke-width="18" stroke-linecap="round" opacity="0.7" clip-path="url(#circle)" filter="url(#lineBlur)"/>
  <path d="M115 305 Q256 110 398 275 Q285 235 178 365" fill="none" stroke="#eafffe" stroke-width="4" stroke-linecap="round" opacity="0.2" clip-path="url(#circle)"/>

  <circle cx="256" cy="256" r="242" fill="none" stroke="#00ddff" stroke-width="4" opacity="0.55" style="fill:none;stroke:rgb(0, 221, 255);color:rgb(255, 255, 255);stroke-width:4px;stroke-linecap:butt;stroke-linejoin:miter;opacity:0.55;font-family:&quot;Anthropic Sans&quot;, -apple-system, BlinkMacSystemFont, &quot;Segoe UI&quot;, sans-serif;font-size:16px;font-weight:400;text-anchor:start;dominant-baseline:auto"/>
  <circle cx="256" cy="256" r="248" fill="none" stroke="#004466" stroke-width="3" opacity="0.4" style="fill:none;stroke:rgb(0, 68, 102);color:rgb(255, 255, 255);stroke-width:3px;stroke-linecap:butt;stroke-linejoin:miter;opacity:0.4;font-family:&quot;Anthropic Sans&quot;, -apple-system, BlinkMacSystemFont, &quot;Segoe UI&quot;, sans-serif;font-size:16px;font-weight:400;text-anchor:start;dominant-baseline:auto"/>
</svg>